<svg width="32" height="32" viewBox="0 0 32 32" fill="none" xmlns="http://www.w3.org/2000/svg">
<path d="M9.24963 20.9694C9.39494 23.4882 9.39494 26.5884 9.24963 30.2698C6.2464 28.9135 3.92133 26.9759 2.32284 24.5539C0.53059 21.7929 -0.195995 18.5474 0.0462008 14.8176C0.239957 11.9113 1.20874 9.2956 3.04942 6.97052C4.64791 4.93608 6.63391 3.2891 9.10431 2.07812L9.15275 2.12661C9.20119 2.12661 9.20119 2.1751 9.24963 2.1751C9.39494 5.22676 9.39494 8.27842 9.24963 11.3785C7.94177 11.6207 7.02143 11.7175 6.39172 11.5237C6.2464 11.2331 6.14953 10.7004 6.2464 9.92535C6.29484 9.10189 6.29484 8.56903 6.14952 8.32684C5.66513 8.47216 5.1323 9.10189 4.50259 10.1675C3.1463 12.5895 2.66191 15.4473 3.19474 18.7896C3.53381 21.0662 4.5026 22.907 6.05265 24.2633C6.2464 24.0211 6.29484 23.5367 6.2464 22.8101C6.19797 21.8413 6.19796 21.26 6.19796 21.0179C7.26362 20.8241 8.2324 20.8241 9.24963 20.9694Z" fill="white"/>
<path d="M20.1968 14.5784C20.3421 19.9067 20.3421 25.2835 20.1968 30.6118C18.9373 31.1446 17.4357 31.3867 15.6435 31.3867C13.8512 31.3867 12.3496 31.1446 11.1386 30.6118C10.9449 28.4804 10.8965 25.235 11.0418 20.7786C11.5746 20.5364 12.5918 20.488 13.9481 20.6818C13.9966 20.8271 13.9966 22.2318 13.9481 24.8959C13.8997 26.9304 13.9481 28.0444 14.045 28.2382C14.2387 28.5288 14.6747 28.7226 15.4013 28.6742C15.9826 28.6742 16.5154 28.5773 16.9998 28.3835C17.242 25.0897 17.2904 21.5052 17.1451 17.6301C16.5638 17.4363 15.595 17.4364 14.1903 17.4364C12.6887 17.4848 11.6715 17.4363 11.1386 17.3394C10.9933 9.0563 10.9449 3.67956 11.0418 1.11229C12.2527 0.676338 13.7544 0.434237 15.595 0.482677C17.3389 0.482677 18.8405 0.724777 20.1483 1.11229C20.2936 4.45459 20.2936 7.79698 20.1483 11.1393C19.1795 11.333 18.2592 11.333 17.2904 11.1393C17.1935 10.2189 17.1935 8.95942 17.1935 7.40937C17.1935 5.27805 17.242 4.01868 17.242 3.58273C16.9513 3.34054 16.4669 3.19519 15.7888 3.19519C15.1107 3.19519 14.5778 3.24363 14.1419 3.43739C14.045 4.59993 14.045 6.39217 14.045 8.76569C14.045 11.8174 14.0934 13.6096 14.0934 14.1425C14.4325 14.2878 15.7888 14.3846 18.1623 14.4815L20.1968 14.5784Z" fill="white"/>
<path d="M25.4307 28.2396C24.026 29.3053 22.9119 29.9835 21.9916 30.1772V2.51856C21.9916 2.42168 22.0885 2.32481 22.1369 2.27637C26.2542 4.06861 28.9668 7.12028 30.2747 11.4798C28.9668 11.6251 28.0465 11.6735 27.4168 11.5766C27.1746 11.3829 26.8839 10.8016 26.448 9.88128C26.1089 9.15469 25.7214 8.67035 25.237 8.47659C24.9464 12.2548 24.8979 17.5346 25.0432 24.2677C25.6245 24.0255 26.2542 23.1052 27.0292 21.5551C27.6589 20.1989 28.0465 19.0362 28.0465 18.0674C28.0465 17.8737 27.8527 17.7769 27.4652 17.7769C26.9808 17.7769 26.7386 17.7768 26.6902 17.7284C26.5448 16.7596 26.5448 15.8393 26.6902 14.8705C28.1433 14.7252 29.5965 14.7252 31.0497 14.8705C31.4372 20.441 29.5481 24.8973 25.4307 28.2396Z" fill="white"/>
</svg>
