<svg width="67" height="24" viewBox="0 0 67 24" fill="none" xmlns="http://www.w3.org/2000/svg">
<path d="M4.07213 0.695312C4.4733 0.695312 4.82434 0.695361 5.12522 0.745508C5.4261 0.745508 5.67683 0.795631 5.92756 0.845778C6.1783 0.895925 6.42903 0.946096 6.67977 0.996243L6.52933 2.60092C6.2786 2.60092 6.02786 2.55073 5.77713 2.55073C5.52639 2.55073 5.32581 2.55073 5.02492 2.55073C4.77419 2.55073 4.4733 2.55073 4.07213 2.55073C3.77125 2.55073 3.52051 2.60095 3.31992 2.75139C3.11934 2.90183 3.01904 3.10237 2.91875 3.4534C2.8686 3.80442 2.81845 4.25577 2.81845 4.85754C2.81845 5.4593 2.8686 5.96079 2.91875 6.26167C2.96889 6.6127 3.11934 6.81324 3.31992 6.96368C3.52051 7.11412 3.77125 7.16434 4.07213 7.16434C4.62374 7.16434 5.12522 7.16434 5.52639 7.16434C5.92757 7.16434 6.27859 7.1141 6.67977 7.06395L6.83021 8.66875C6.42904 8.81919 6.02786 8.91942 5.62669 8.96956C5.22551 9.01971 4.72404 9.06983 4.07213 9.06983C3.21963 9.06983 2.51757 8.91949 1.96596 8.66875C1.46449 8.41802 1.06331 7.96665 0.812575 7.36488C0.56184 6.76312 0.461548 5.91067 0.461548 4.90773C0.461548 3.85465 0.56184 3.05222 0.812575 2.45046C1.06331 1.84869 1.41434 1.39744 1.96596 1.14671C2.51757 0.845827 3.21963 0.695312 4.07213 0.695312Z" fill="white"/>
<path d="M9.38469 3.10386L9.63542 4.30734L9.83601 4.4578V8.97103H7.67969V3.10386H9.38469ZM12.2431 2.95339L12.0425 4.9092H11.4909C11.2401 4.9092 10.9894 4.90913 10.6885 4.95927C10.3876 5.00942 10.0366 5.10971 9.63542 5.21001L9.48498 4.0566C9.88616 3.70557 10.2873 3.40472 10.6885 3.20413C11.0897 3.00354 11.4909 2.90332 11.892 2.90332H12.2431V2.95339Z" fill="white"/>
<path d="M15.8061 2.95312C16.8591 2.95312 17.6114 3.10357 18.0627 3.45459C18.514 3.80562 18.7146 4.30714 18.7146 5.0092C18.7146 5.56082 18.5641 5.96194 18.2633 6.21268C17.9624 6.46341 17.4108 6.61388 16.6586 6.61388H13.4491V5.56074H16.0568C16.3075 5.56074 16.5081 5.51062 16.5583 5.46047C16.6084 5.36018 16.6586 5.25986 16.6586 5.05927C16.6586 4.80854 16.6084 4.65815 16.458 4.608C16.3577 4.50771 16.1571 4.50773 15.8562 4.50773C15.6055 4.50773 15.3547 4.50771 15.2043 4.608C15.0539 4.65815 14.9536 4.80861 14.9034 5.0092C14.8533 5.20979 14.8031 5.56077 14.8031 5.96194C14.8031 6.36312 14.8533 6.71415 14.9034 6.96488C14.9536 7.21562 15.104 7.36606 15.2544 7.46635C15.455 7.56665 15.7058 7.61682 16.0066 7.61682C16.2574 7.61682 16.6084 7.61677 17.0096 7.56662C17.4108 7.56662 17.8621 7.5165 18.3134 7.46635L18.514 8.77022C18.2633 8.92066 17.9624 8.97074 17.6615 9.07103C17.3606 9.12118 17.0597 9.17135 16.7087 9.2215C16.4078 9.27164 16.0568 9.27169 15.7559 9.27169C14.9536 9.27169 14.3518 9.17142 13.8503 8.92069C13.399 8.7201 13.048 8.36907 12.8474 7.91775C12.6468 7.46643 12.5465 6.91474 12.5465 6.21268C12.5465 5.46047 12.6468 4.80859 12.8474 4.35726C13.048 3.90594 13.399 3.55491 13.8503 3.35433C14.4019 3.05344 15.0037 2.95312 15.8061 2.95312Z" fill="white"/>
<path d="M24.483 5.4104V6.51361H21.9756C21.775 6.51361 21.6747 6.56378 21.5745 6.66407C21.4742 6.76437 21.4742 6.86464 21.4742 7.01508V7.21562C21.4742 7.36606 21.5243 7.46633 21.6246 7.56662C21.7249 7.66692 21.8753 7.66701 22.0759 7.66701C22.2765 7.66701 22.4771 7.61684 22.6777 7.51655C22.8783 7.41625 23.129 7.31598 23.3296 7.16554C23.5302 7.0151 23.7308 6.86466 23.8812 6.66407V7.41628C23.8311 7.56672 23.7308 7.71711 23.5803 7.86755C23.4299 8.06814 23.2794 8.26878 23.0789 8.41922C22.8783 8.61981 22.6275 8.77025 22.3267 8.92069C22.0258 9.07113 21.6747 9.12123 21.3237 9.12123C20.9727 9.12123 20.6217 9.07113 20.3208 8.92069C20.0199 8.77025 19.7692 8.61976 19.6187 8.36902C19.4181 8.11829 19.368 7.81738 19.368 7.46635V6.86461C19.368 6.41329 19.5184 6.01214 19.8695 5.7614C20.2205 5.51067 20.6718 5.3602 21.2234 5.3602H24.483V5.4104ZM22.8783 2.95312C23.4299 2.95312 23.8311 3.00335 24.2322 3.15379C24.5833 3.30423 24.8842 3.55491 25.0847 3.85579C25.2853 4.20682 25.3856 4.65812 25.3856 5.20974V8.97076H23.6806L23.3797 7.71709L23.2293 7.51655V5.25993C23.2293 5.0092 23.1792 4.85876 23.0287 4.75846C22.9284 4.65817 22.7278 4.608 22.4269 4.608C22.1261 4.608 21.7249 4.608 21.2736 4.608C20.8222 4.608 20.3709 4.6582 19.8695 4.6582L19.6689 3.25406C19.9697 3.20391 20.3208 3.15374 20.6718 3.10359C21.0228 3.05344 21.4742 3.00332 21.8252 3.00332C22.2765 2.95317 22.6275 2.95312 22.8783 2.95312Z" fill="white"/>
<path d="M30.6977 3.10246V4.4564H26.0341V3.20273L27.1874 3.15265H30.6977V3.10246ZM29.1933 1.54785V6.96375C29.1933 7.11419 29.2435 7.26465 29.3438 7.36495C29.4441 7.46524 29.5945 7.46522 29.7951 7.46522H30.4971L30.7479 8.86936C30.5974 8.9195 30.3968 8.96968 30.1963 9.01982C29.9957 9.06997 29.7449 9.06995 29.4942 9.12009C29.2435 9.12009 29.093 9.17029 28.8924 9.17029C28.3408 9.17029 27.8895 9.01977 27.5886 8.71889C27.2877 8.41801 27.0871 8.01688 27.0871 7.51541V1.54785H29.1933Z" fill="white"/>
<path d="M33.0543 0.496094C33.4555 0.496094 33.6561 0.696706 33.6561 1.14803V1.74977C33.6561 2.15094 33.4555 2.4017 33.0543 2.4017H32.1517C31.7505 2.4017 31.5499 2.20109 31.5499 1.74977V1.14803C31.5499 0.746853 31.7505 0.496094 32.1517 0.496094H33.0543ZM33.6561 3.10371V8.97088H31.5499V3.10371H33.6561Z" fill="white"/>
<path d="M41.226 3.10254L39.4208 8.46824C39.3706 8.61868 39.2703 8.7691 39.17 8.81924C39.0697 8.91954 38.9193 8.96971 38.7187 8.96971H36.8633C36.7128 8.96971 36.5624 8.91954 36.4621 8.81924C36.3618 8.71895 36.2615 8.61868 36.2114 8.46824L34.4061 3.10254H36.6627L37.5152 6.51256C37.5653 6.663 37.6155 6.86351 37.6155 7.0641C37.6656 7.26469 37.6656 7.41518 37.7158 7.61577H37.8662C37.9164 7.41518 37.9163 7.26469 37.9665 7.0641C38.0166 6.86351 38.0166 6.71315 38.0668 6.51256L38.9193 3.10254H41.226Z" fill="white"/>
<path d="M44.6425 2.95312C45.6956 2.95312 46.4478 3.10357 46.8992 3.45459C47.3505 3.80562 47.5511 4.30714 47.5511 5.0092C47.5511 5.56082 47.4006 5.96194 47.0997 6.21268C46.7989 6.46341 46.2472 6.61388 45.495 6.61388H42.2856V5.56074H44.8933C45.144 5.56074 45.3446 5.51062 45.3948 5.46047C45.4449 5.36018 45.495 5.25986 45.495 5.05927C45.495 4.80854 45.4449 4.65815 45.2945 4.608C45.1942 4.50771 44.9936 4.50773 44.6927 4.50773C44.442 4.50773 44.1912 4.50771 44.0408 4.608C43.8903 4.65815 43.79 4.80861 43.7399 5.0092C43.6897 5.20979 43.6396 5.56077 43.6396 5.96194C43.6396 6.36312 43.6897 6.71415 43.7399 6.96488C43.79 7.21562 43.9405 7.36606 44.0909 7.46635C44.2915 7.56665 44.5423 7.61682 44.8431 7.61682C45.0939 7.61682 45.4449 7.61677 45.8461 7.56662C46.2472 7.56662 46.6986 7.5165 47.1499 7.46635L47.3505 8.77022C47.0997 8.92066 46.7989 8.97074 46.498 9.07103C46.1971 9.12118 45.8962 9.17135 45.5452 9.2215C45.2443 9.27164 44.8933 9.27169 44.5924 9.27169C43.79 9.27169 43.1883 9.17142 42.6868 8.92069C42.2355 8.7201 41.8845 8.36907 41.6839 7.91775C41.4833 7.46643 41.383 6.91474 41.383 6.21268C41.383 5.46047 41.4833 4.80859 41.6839 4.35726C41.8845 3.90594 42.2355 3.55491 42.6868 3.35433C43.2886 3.05344 43.8903 2.95312 44.6425 2.95312Z" fill="white"/>
<path d="M3.67381 12.4829C4.07498 12.4829 4.52631 12.533 5.07792 12.5832C5.57939 12.6333 6.08087 12.7337 6.53219 12.8841L6.38175 14.3383C6.03072 14.3383 5.62954 14.3383 5.12807 14.3383C4.6266 14.3383 4.12513 14.3383 3.67381 14.3383C3.47322 14.3383 3.32278 14.3383 3.22249 14.3383C3.12219 14.3383 3.0219 14.3885 2.9216 14.3885C2.87146 14.4387 2.77117 14.4888 2.77117 14.539C2.72102 14.5891 2.72102 14.6894 2.72102 14.8398C2.72102 15.0404 2.77117 15.1909 2.87146 15.2912C2.97175 15.3915 3.17234 15.4917 3.47322 15.592L4.97763 16.1437C5.62954 16.3944 6.08087 16.7454 6.38175 17.0964C6.63248 17.4976 6.78293 17.9489 6.78293 18.6008C6.78293 19.0521 6.73278 19.4533 6.63248 19.7542C6.53219 20.0551 6.3316 20.3058 6.08086 20.5064C5.83013 20.707 5.52925 20.8073 5.07792 20.9076C4.67675 21.0079 4.17528 21.0581 3.57352 21.0581C3.32278 21.0581 2.87146 21.058 2.36999 21.0079C1.81837 20.9577 1.21661 20.8575 0.564697 20.7071L0.71514 19.1525C1.16646 19.1525 1.61779 19.1525 1.96881 19.2027C2.31984 19.2027 2.67087 19.2027 2.9216 19.2027C3.17234 19.2027 3.42307 19.2027 3.57352 19.2027C3.82425 19.2027 4.02484 19.2026 4.17528 19.1525C4.32572 19.1023 4.42602 19.0522 4.47616 19.002C4.52631 18.9519 4.57645 18.8015 4.57645 18.7012C4.57645 18.5508 4.57646 18.4504 4.52631 18.4003C4.47617 18.3 4.42601 18.2499 4.32572 18.1997C4.22543 18.1496 4.07498 18.0994 3.92454 18.0493L2.31984 17.3973C1.66793 17.1466 1.21661 16.7956 0.965875 16.4446C0.71514 16.0936 0.564697 15.592 0.564697 14.9903C0.564697 14.5389 0.614849 14.1377 0.76529 13.8369C0.865584 13.536 1.06617 13.2853 1.3169 13.1348C1.56764 12.9844 1.86852 12.834 2.31984 12.7838C2.62072 12.5331 3.12219 12.4829 3.67381 12.4829Z" fill="white"/>
<path d="M9.28521 12.2788C9.68639 12.2788 9.88697 12.4794 9.88697 12.9307V13.5325C9.88697 13.9337 9.68639 14.1844 9.28521 14.1844H8.38256C7.98139 14.1844 7.7808 13.9838 7.7808 13.5325V12.9307C7.7808 12.5296 7.98139 12.2788 8.38256 12.2788H9.28521ZM9.88697 14.9366V20.8038H7.73065V14.9366H9.88697Z" fill="white"/>
<path d="M12.0954 18.1483L13.0983 18.3488C12.998 18.399 12.9479 18.4491 12.8978 18.5996C12.8476 18.6999 12.8476 18.8003 12.9479 18.9507C12.998 19.051 13.1485 19.1011 13.3491 19.1512L15.5054 19.3518C16.1573 19.4019 16.6086 19.6025 16.9095 19.8532C17.1602 20.1541 17.3107 20.5554 17.3107 21.1571C17.3107 21.7087 17.2104 22.1099 16.9597 22.3606C16.7591 22.6615 16.408 22.812 15.9066 22.9123C15.4553 23.0126 14.8033 23.0627 14.001 23.0627C13.3491 23.0627 12.7975 23.0126 12.3461 22.9625C11.945 22.9123 11.5939 22.812 11.3432 22.6615C11.0925 22.5111 10.942 22.3606 10.8417 22.1601C10.7414 21.9595 10.6913 21.6585 10.6913 21.3577C10.6913 21.1069 10.7414 20.9064 10.8417 20.7058C10.942 20.5053 11.0925 20.3548 11.3432 20.2044C11.5939 20.0539 11.8948 19.9536 12.3461 19.8032L13.2989 19.5524L14.0511 19.8032L13.65 20.0539C13.4494 20.2043 13.2488 20.3548 13.1485 20.4049C12.998 20.5052 12.9479 20.5554 12.8978 20.6556C12.8476 20.7058 12.7975 20.8563 12.7975 20.9566C12.7975 21.0569 12.8476 21.2072 12.8978 21.2574C12.9479 21.3075 13.0983 21.4079 13.2488 21.4079C13.4494 21.458 13.65 21.458 13.9508 21.458C14.3019 21.458 14.5526 21.458 14.7532 21.4079C14.9538 21.3577 15.0541 21.3577 15.1544 21.2574C15.2045 21.2072 15.2547 21.107 15.2547 20.9566C15.2547 20.8061 15.2045 20.756 15.1544 20.7058C15.1042 20.6557 15.0039 20.6055 14.8535 20.6055C14.703 20.5553 14.5526 20.5553 14.3019 20.5052L12.5969 20.3547C12.296 20.3046 11.9951 20.2544 11.8447 20.104C11.6441 19.9535 11.5438 19.8031 11.4435 19.6025C11.3933 19.4019 11.3432 19.2014 11.3933 19.0008C11.4435 18.8002 11.4936 18.5997 11.6441 18.4492C11.6942 18.2988 11.8948 18.1984 12.0954 18.1483ZM13.9007 14.7383C14.6028 14.7383 15.2045 14.7885 15.6057 14.9389C16.0069 15.0894 16.3077 15.2398 16.5083 15.5407C16.7089 15.7914 16.8092 16.1926 16.8092 16.6439C16.8092 17.0952 16.7089 17.4462 16.5585 17.7471C16.3579 17.9978 16.057 18.1984 15.6558 18.3488C15.2045 18.4491 14.6529 18.5495 13.9508 18.5495C13.2488 18.5495 12.6972 18.4993 12.2458 18.3488C11.7945 18.2485 11.4936 18.048 11.3432 17.7471C11.1426 17.4964 11.0423 17.0952 11.0423 16.6439C11.0423 16.1926 11.1426 15.8416 11.3432 15.5407C11.5438 15.2899 11.8447 15.0894 12.296 14.9389C12.647 14.8386 13.1986 14.7383 13.9007 14.7383ZM13.9007 15.992C13.5497 15.992 13.2989 16.0421 13.1986 16.1424C13.0482 16.2427 12.998 16.3932 12.998 16.6439C12.998 16.8946 13.0482 17.0451 13.1986 17.1454C13.3491 17.2457 13.5497 17.2958 13.9007 17.2958C14.2517 17.2958 14.5025 17.2457 14.6529 17.1454C14.8033 17.0451 14.8535 16.8946 14.8535 16.6439C14.8535 16.3932 14.8033 16.2427 14.6529 16.1424C14.5025 16.0421 14.2517 15.992 13.9007 15.992ZM17.4611 14.9389L17.3608 15.7412L15.7561 15.992L15.3048 14.9389H17.4611Z" fill="white"/>
<path d="M20.3244 12.5331V14.3885C20.3244 14.7395 20.3243 15.0404 20.2742 15.3413C20.2241 15.6421 20.1739 15.8929 20.1238 16.0935L20.3244 16.2439V20.7572H18.168V12.4829H20.3244V12.5331ZM22.5308 14.7395C23.6842 14.7395 24.2358 15.2912 24.2358 16.3944V20.7572H22.0795V17.0463C22.0795 16.8457 22.0293 16.7454 21.9792 16.6451C21.929 16.595 21.7786 16.5449 21.578 16.5449C21.3774 16.5449 21.1768 16.595 20.9261 16.6451C20.7255 16.6953 20.4246 16.7956 20.0736 16.9461L19.873 15.9431C20.2742 15.5419 20.7255 15.241 21.1768 15.0405C21.6282 14.8399 22.0795 14.7395 22.5308 14.7395Z" fill="white"/>
<path d="M29.5998 14.9383V16.2922H24.9361V15.0386L26.0895 14.9884H29.5998V14.9383ZM28.0954 13.3335V18.7494C28.0954 18.8998 28.1455 19.0503 28.2458 19.1506C28.3461 19.2509 28.4965 19.2509 28.6971 19.2509H29.3992L29.6499 20.655C29.4995 20.7051 29.2989 20.7553 29.0983 20.8055C28.8977 20.8556 28.647 20.8556 28.3962 20.9057C28.1455 20.9057 27.9951 20.9559 27.7945 20.9559C27.2429 20.9559 26.7915 20.8054 26.4906 20.5045C26.1898 20.2037 25.9892 19.8025 25.9892 19.3011V13.3335H28.0954Z" fill="white"/>
<path d="M36.4706 12.4829C36.8718 12.4829 37.2228 12.483 37.5237 12.5331C37.8246 12.5331 38.1255 12.5832 38.3762 12.6334C38.627 12.6835 38.9278 12.7336 39.1786 12.8339L39.0281 14.4387C38.7272 14.4387 38.4765 14.4387 38.2258 14.4387C37.975 14.4387 37.6742 14.4387 37.4234 14.4387C37.1727 14.4387 36.8217 14.4387 36.5208 14.4387C36.27 14.4387 36.0193 14.4888 35.8187 14.539C35.6181 14.5891 35.4677 14.7395 35.3674 14.89C35.2671 15.0404 35.1668 15.2911 35.1167 15.592C35.0665 15.8929 35.0665 16.2941 35.0665 16.7956C35.0665 17.3974 35.1167 17.8487 35.1668 18.1997C35.217 18.5508 35.3674 18.7513 35.5178 18.9017C35.6683 19.0522 35.919 19.1023 36.2199 19.1023C36.4205 19.1023 36.6211 19.1024 36.7715 19.0522C36.9219 19.0021 37.0724 19.0021 37.2228 18.9519C37.3733 18.9018 37.4736 18.8516 37.5739 18.8015L37.7744 19.7542C37.6742 19.9047 37.5237 20.1052 37.273 20.2557C37.0724 20.4563 36.7715 20.6067 36.4205 20.7572C36.0695 20.9076 35.7184 20.9578 35.2671 20.9578C34.6653 20.9578 34.1639 20.8073 33.7627 20.5064C33.3615 20.2055 33.0606 19.7542 32.9102 19.1525C32.7096 18.5507 32.6093 17.6983 32.6093 16.6953C32.6093 15.6422 32.7096 14.7897 32.9603 14.188C33.2111 13.5862 33.6122 13.1348 34.1639 12.8841C34.8659 12.6334 35.568 12.4829 36.4706 12.4829ZM39.5797 16.0935V20.7572H37.975L37.6742 19.5035L37.4736 19.1023V16.0434H39.5797V16.0935Z" fill="white"/>
<path d="M42.337 14.9373L42.5877 16.1407L42.7883 16.2912V20.8044H40.632V14.9373H42.337ZM45.1953 14.7366L44.9947 16.6924H44.4431C44.1924 16.6924 43.9417 16.6923 43.6408 16.7425C43.3399 16.7926 42.9889 16.8929 42.5877 16.9932L42.4373 15.8398C42.8384 15.4888 43.2396 15.1879 43.6408 14.9873C44.042 14.7867 44.4431 14.6865 44.8443 14.6865H45.1953V14.7366Z" fill="white"/>
<path d="M48.755 14.7383C49.5072 14.7383 50.1591 14.8386 50.6105 15.0392C51.0618 15.2398 51.4128 15.5908 51.6134 16.0422C51.814 16.4935 51.9143 17.0952 51.9143 17.8474C51.9143 18.5996 51.814 19.2014 51.6134 19.6527C51.4128 20.104 51.0618 20.4049 50.6105 20.6055C50.1591 20.806 49.5072 20.9064 48.755 20.9064C48.0028 20.9064 47.3509 20.806 46.8996 20.6055C46.4483 20.4049 46.0972 20.104 45.8966 19.6527C45.6961 19.2014 45.5958 18.5996 45.5958 17.8474C45.5958 17.0952 45.6961 16.4935 45.8966 16.0422C46.0972 15.5908 46.4483 15.2398 46.8996 15.0392C47.3509 14.8386 47.9527 14.7383 48.755 14.7383ZM48.755 16.2427C48.5043 16.2427 48.3037 16.2929 48.2034 16.3932C48.053 16.4934 48.0028 16.6438 47.9025 16.8444C47.8524 17.0952 47.8022 17.396 47.8022 17.8474C47.8022 18.2987 47.8524 18.5996 47.9025 18.8503C47.9527 19.101 48.053 19.2516 48.2034 19.3017C48.3539 19.402 48.5043 19.402 48.755 19.402C49.0058 19.402 49.2063 19.3519 49.3066 19.3017C49.4571 19.2014 49.5574 19.0509 49.6075 18.8503C49.6577 18.5996 49.7078 18.2987 49.7078 17.8474C49.7078 17.396 49.6577 17.0952 49.6075 16.8444C49.5574 16.5937 49.4571 16.4433 49.3066 16.3932C49.1562 16.2929 49.0058 16.2427 48.755 16.2427Z" fill="white"/>
<path d="M54.9702 14.9354V18.6463C54.9702 18.8469 55.0204 18.9472 55.0705 19.0475C55.1708 19.1478 55.3213 19.1477 55.4717 19.1477C55.6723 19.1477 55.8729 19.0976 56.0735 19.0475C56.274 18.9973 56.5248 18.897 56.8257 18.7465L56.9761 19.8498C56.5749 20.2008 56.1737 20.5017 55.7726 20.6522C55.3714 20.8527 54.9702 20.9029 54.5189 20.9029C53.3655 20.9029 52.8139 20.3512 52.8139 19.248V14.8853H54.9702V14.9354ZM58.8315 14.9354V20.8026H57.1265L56.8758 19.599L56.6752 19.4487V14.8853H58.8315V14.9354Z" fill="white"/>
<path d="M61.7412 14.9386L61.9418 15.9415L62.1423 16.142V20.0033L62.0922 20.1538C62.0922 20.4045 62.1423 20.6553 62.1423 20.9562C62.1423 21.2571 62.1423 21.5077 62.1423 21.7585V23.0623H59.986V15.0388H61.7412V14.9386ZM64.1482 14.7881C64.9004 14.7881 65.452 15.0387 65.7529 15.5904C66.0538 16.142 66.2544 16.8942 66.2544 17.8972C66.2544 18.6995 66.1541 19.3013 66.0037 19.7526C65.8532 20.2039 65.6025 20.5048 65.2515 20.6553C64.9004 20.8558 64.4992 20.906 64.0479 20.906C63.5966 20.906 63.1954 20.8559 62.8444 20.7055C62.4432 20.555 62.1423 20.3544 61.8916 20.0535L62.042 19.1508C62.2426 19.201 62.4432 19.2511 62.5937 19.3514C62.7942 19.4015 62.9948 19.4518 63.2456 19.4518C63.4462 19.4518 63.5966 19.4015 63.747 19.3514C63.8473 19.3012 63.9476 19.1508 63.9978 18.9001C64.0479 18.6995 64.0981 18.3485 64.0981 17.8972C64.0981 17.4459 64.0479 17.0948 63.9978 16.8942C63.9476 16.6435 63.8473 16.4931 63.747 16.443C63.6468 16.3928 63.4963 16.3426 63.2957 16.3426C63.045 16.3426 62.8444 16.3928 62.694 16.443C62.5435 16.4931 62.3429 16.5933 62.1423 16.7438L61.8415 15.8913C61.9919 15.6907 62.1423 15.4901 62.3931 15.3396C62.6438 15.1892 62.8945 15.0388 63.1954 14.9386C63.4963 14.8383 63.7972 14.7881 64.1482 14.7881Z" fill="white"/>
</svg>
